# Blender 3.3.1
# www.blender.org
o crate
v -0.568166 0.870137 0.710313
v -0.568166 0.870137 0.378857
v -0.223991 1.136331 0.201974
v -0.301972 1.136331 0.710313
v -0.568166 0.266194 0.378857
v -0.568166 0.266194 0.710313
v -0.301972 -0.000000 0.710313
v -0.301972 -0.000000 0.378857
v -0.430655 0.323153 1.134102
v -0.245013 0.137511 1.134102
v -0.245013 0.998820 1.134102
v -0.430655 0.813178 1.134102
v -0.245013 0.137511 -1.138561
v -0.430655 0.323153 -1.138561
v -0.430655 0.813178 -1.138561
v -0.245013 0.998820 -1.138561
v 0.245013 0.137511 1.134102
v 0.430655 0.323153 1.134102
v 0.430655 0.813178 1.134102
v 0.245013 0.998820 1.134102
v 0.430655 0.323153 -1.138561
v 0.245013 0.137511 -1.138561
v 0.245013 0.998820 -1.138561
v 0.430655 0.813178 -1.138561
v 0.301972 -0.000000 0.710313
v 0.301972 -0.000000 0.378857
v 0.568166 0.266194 0.378857
v 0.568166 0.266194 0.710313
v 0.223991 1.136331 0.201974
v 0.301972 1.136331 0.710313
v 0.568166 0.870137 0.710313
v 0.568166 0.870137 0.378857
v 0.568166 0.266194 -0.379852
v -0.568166 0.870137 -0.379852
v -0.301972 -0.000000 -0.379852
v -0.568166 0.266194 -0.379852
v -0.223991 1.136331 -0.202969
v 0.301972 -0.000000 -0.379852
v 0.568166 0.870137 -0.379852
v 0.223991 1.136331 -0.202969
v -0.568166 0.266194 -0.691314
v -0.301972 1.136331 -0.691314
v 0.301972 -0.000000 -0.691314
v 0.568166 0.870137 -0.691314
v 0.568166 0.266194 -0.691314
v -0.568166 0.870137 -0.691314
v -0.301972 -0.000000 -0.691314
v 0.301972 1.136331 -0.691314
v 0.634041 0.231182 0.378857
v 0.634041 0.231182 0.710313
v -0.336984 1.202207 0.710313
v -0.336984 1.202207 0.378857
v -0.634041 0.231182 0.710313
v -0.634041 0.231182 0.378857
v -0.336984 -0.065875 0.378857
v -0.336984 -0.065875 0.710313
v 0.336984 -0.065875 0.710313
v 0.336984 -0.065875 0.378857
v -0.634041 0.905149 0.378857
v -0.634041 0.905149 0.710313
v 0.336984 1.202207 0.378857
v 0.336984 1.202207 0.710313
v 0.634041 0.905149 0.710313
v 0.634041 0.905149 0.378857
v 0.634041 0.231182 -0.691314
v 0.634041 0.231182 -0.379852
v -0.634041 0.905149 -0.691314
v -0.634041 0.905149 -0.379852
v -0.336984 -0.065875 -0.691314
v -0.336984 -0.065875 -0.379852
v 0.336984 1.202207 -0.691314
v 0.336984 1.202207 -0.379852
v 0.634041 0.905149 -0.379852
v -0.336984 1.202207 -0.379852
v -0.634041 0.231182 -0.379852
v 0.336984 -0.065875 -0.379852
v -0.634041 0.231182 -0.691314
v -0.336984 1.202207 -0.691314
v 0.336984 -0.065875 -0.691314
v 0.634041 0.905149 -0.691314
v 0.301972 1.136331 -0.379852
v 0.301972 1.136331 0.378857
v -0.301972 1.136331 0.378857
v -0.301972 1.136331 -0.379852
v -0.223991 1.085018 0.201974
v 0.223991 1.085018 0.201974
v -0.223991 1.085018 -0.202969
v 0.223991 1.085018 -0.202969
v -0.568166 0.266194 -1.138561
v -0.301972 -0.000000 -1.138561
v -0.301972 -0.000000 1.134102
v -0.568166 0.266194 1.134102
v -0.568166 0.870137 1.134102
v -0.301972 1.136331 1.134102
v -0.301972 1.136331 -1.138561
v -0.568166 0.870137 -1.138561
v 0.568166 0.266194 1.134102
v 0.301972 -0.000000 1.134102
v 0.301972 -0.000000 -1.138561
v 0.568166 0.266194 -1.138561
v 0.568166 0.870137 -1.138561
v 0.301972 1.136331 -1.138561
v 0.301972 1.136331 1.134102
v 0.568166 0.870137 1.134102
v -0.430655 0.813178 0.997551
v 0.430655 0.813178 0.997551
v -0.430655 0.323153 0.997551
v 0.430655 0.323153 0.997551
v -0.245013 0.137511 0.997551
v -0.245013 0.998820 0.997551
v 0.245013 0.137511 0.997551
v 0.245013 0.998820 0.997551
v 0.430655 0.813178 -1.001083
v -0.430655 0.813178 -1.001083
v 0.430655 0.323153 -1.001083
v -0.430655 0.323153 -1.001083
v -0.245013 0.137511 -1.001083
v -0.245013 0.998820 -1.001083
v 0.245013 0.137511 -1.001083
v 0.245013 0.998820 -1.001083
vn -1.0000 -0.0000 -0.0000
vn 1.0000 -0.0000 -0.0000
vn -0.0000 -1.0000 -0.0000
vn -0.0000 1.0000 -0.0000
vn 0.7071 -0.7071 -0.0000
vn -0.7071 -0.7071 -0.0000
vn -0.7071 0.7071 -0.0000
vn 0.7071 0.7071 -0.0000
vn -0.0000 -0.0000 -1.0000
vn -0.0000 -0.0000 1.0000
vt 0.566436 0.083333
vt 0.566436 0.166667
vt 0.799279 0.579051
vt 0.816436 0.666667
vt 0.625000 0.083333
vt 0.433564 0.166667
vt 0.125000 0.583333
vt 0.125000 0.666667
vt 0.433564 0.083333
vt 0.183564 0.666667
vt 0.183564 0.583333
vt 0.446096 0.969747
vt 0.405253 0.928904
vt 0.594747 0.928904
vt 0.553904 0.969747
vt 0.405253 0.321096
vt 0.446096 0.280253
vt 0.553904 0.280253
vt 0.594747 0.321096
vt 0.405253 0.821096
vt 0.446096 0.780253
vt 0.553904 0.780253
vt 0.594747 0.821096
vt 0.446096 0.469747
vt 0.405253 0.428904
vt 0.594747 0.428904
vt 0.553904 0.469747
vt 0.316436 0.666667
vt 0.316436 0.583333
vt 0.433564 0.583333
vt 0.433564 0.666667
vt 0.700720 0.579051
vt 0.683564 0.666667
vt 0.566436 0.666667
vt 0.566436 0.583333
vt 0.433564 0.541667
vt 0.566436 0.208333
vt 0.183564 0.541667
vt 0.125000 0.541667
vt 0.433564 0.208333
vt 0.799279 0.545949
vt 0.316436 0.541667
vt 0.566436 0.541667
vt 0.700720 0.545949
vt 0.125000 0.524562
vt 0.433564 0.225438
vt 0.816436 0.524562
vt 0.625000 0.225438
vt 0.316436 0.524562
vt 0.566436 0.524562
vt 0.433564 0.524562
vt 0.566436 0.225438
vt 0.183564 0.524562
vt 0.683564 0.524562
vt 0.433564 0.583333
vt 0.433564 0.666667
vt 0.816436 0.666667
vt 0.625000 0.083333
vt 0.816436 0.583333
vt 0.625000 0.166667
vt 0.125000 0.666667
vt 0.433564 0.083333
vt 0.433564 0.166667
vt 0.125000 0.583333
vt 0.183564 0.583333
vt 0.183564 0.666667
vt 0.316436 0.666667
vt 0.316436 0.583333
vt 0.566436 0.166667
vt 0.566436 0.083333
vt 0.683564 0.583333
vt 0.683564 0.666667
vt 0.566436 0.666667
vt 0.566436 0.583333
vt 0.433564 0.524562
vt 0.433564 0.541667
vt 0.566436 0.225438
vt 0.566436 0.208333
vt 0.183564 0.524562
vt 0.183564 0.541667
vt 0.683564 0.524562
vt 0.683564 0.541667
vt 0.566436 0.541667
vt 0.816436 0.541667
vt 0.625000 0.208333
vt 0.125000 0.541667
vt 0.433564 0.208333
vt 0.316436 0.541667
vt 0.125000 0.524562
vt 0.433564 0.225438
vt 0.816436 0.524562
vt 0.625000 0.225438
vt 0.316436 0.524562
vt 0.566436 0.524562
vt 0.683564 0.541667
vt 0.683564 0.583333
vt 0.625000 0.166667
vt 0.816436 0.583333
vt 0.625000 0.208333
vt 0.816436 0.541667
vt 0.799279 0.579051
vt 0.700720 0.579051
vt 0.799279 0.545949
vt 0.700720 0.545949
vt 0.125000 0.500000
vt 0.433564 0.250000
vt 0.183564 0.500000
vt 0.375000 0.308564
vt 0.183564 0.750000
vt 0.375000 0.941436
vt 0.125000 0.750000
vt 0.433564 0.000000
vt 0.433564 1.000000
vt 0.566436 0.000000
vt 0.566436 1.000000
vt 0.816436 0.750000
vt 0.625000 0.000000
vt 0.625000 0.941436
vt 0.625000 0.250000
vt 0.816436 0.500000
vt 0.625000 0.308564
vt 0.566436 0.250000
vt 0.433564 0.750000
vt 0.316436 0.750000
vt 0.375000 0.808564
vt 0.316436 0.500000
vt 0.375000 0.441436
vt 0.433564 0.500000
vt 0.566436 0.500000
vt 0.683564 0.500000
vt 0.625000 0.441436
vt 0.683564 0.750000
vt 0.625000 0.808564
vt 0.566436 0.750000
vt 0.553904 0.969747
vt 0.553904 0.780253
vt 0.446096 0.969747
vt 0.446096 0.780253
vt 0.405253 0.928904
vt 0.594747 0.928904
vt 0.405253 0.821096
vt 0.594747 0.821096
vt 0.553904 0.469747
vt 0.553904 0.280253
vt 0.446096 0.469747
vt 0.446096 0.280253
vt 0.405253 0.321096
vt 0.594747 0.321096
vt 0.405253 0.428904
vt 0.594747 0.428904
s 0
f 18/21/1 19/22/1 106/136/1 108/138/1
f 28/31/2 31/34/2 104/134/2 97/123/2
f 35/38/3 38/42/3 26/29/3 8/11/3
f 30/33/4 4/4/4 94/116/4 103/132/4
f 41/46/1 46/52/1 96/122/1 89/106/1
f 15/18/5 16/19/5 118/148/5 114/144/5
f 7/10/6 91/109/6 92/111/6 6/8/6
f 42/48/7 95/119/7 96/122/7 46/52/7
f 43/49/5 99/126/5 100/128/5 45/51/5
f 30/33/8 103/132/8 104/134/8 31/34/8
f 7/10/3 25/28/3 98/124/3 91/109/3
f 32/35/9 82/96/9 61/71/9 64/74/9
f 81/95/8 82/96/8 32/35/8 39/43/8
f 41/45/9 47/53/9 69/79/9 77/89/9
f 98/124/5 25/28/5 28/31/5 97/123/5
f 31/34/10 28/31/10 50/56/10 63/73/10
f 94/117/7 4/5/7 1/1/7 93/114/7
f 33/36/10 38/42/10 76/88/10 66/76/10
f 35/38/6 8/11/6 5/7/6 36/39/6
f 25/28/10 7/10/10 56/66/10 57/67/10
f 92/112/1 93/114/1 1/1/1 6/9/1
f 44/50/9 48/54/9 71/81/9 80/94/9
f 27/30/9 32/35/9 64/74/9 49/55/9
f 33/36/2 39/43/2 32/35/2 27/30/2
f 81/95/10 39/43/10 73/83/10 72/82/10
f 8/11/9 26/29/9 58/68/9 55/65/9
f 47/53/9 43/49/9 79/93/9 69/79/9
f 4/4/10 30/33/10 62/72/10 51/57/10
f 35/38/10 36/39/10 75/86/10 70/80/10
f 26/29/5 38/42/5 33/36/5 27/30/5
f 83/97/7 84/99/7 34/37/7 2/2/7
f 5/6/1 2/2/1 34/37/1 36/40/1
f 82/96/9 83/98/9 52/59/9 61/71/9
f 90/107/3 99/126/3 43/49/3 47/53/3
f 102/130/8 48/54/8 44/50/8 101/129/8
f 90/107/6 47/53/6 41/45/6 89/105/6
f 102/130/4 95/120/4 42/47/4 48/54/4
f 100/128/2 101/129/2 44/50/2 45/51/2
f 84/100/10 81/95/10 72/82/10 74/84/10
f 2/2/9 5/6/9 54/63/9 59/69/9
f 39/43/10 33/36/10 66/76/10 73/83/10
f 55/65/3 58/68/3 57/67/3 56/66/3
f 61/71/8 62/72/8 63/73/8 64/74/8
f 57/67/5 58/68/5 49/55/5 50/56/5
f 51/58/7 52/60/7 59/69/7 60/70/7
f 55/65/6 56/66/6 53/61/6 54/64/6
f 53/62/1 60/70/1 59/69/1 54/63/1
f 61/71/4 52/59/4 51/57/4 62/72/4
f 49/55/2 64/74/2 63/73/2 50/56/2
f 65/75/2 80/94/2 73/83/2 66/76/2
f 71/81/4 78/91/4 74/84/4 72/82/4
f 69/79/6 70/80/6 75/86/6 77/89/6
f 71/81/8 72/82/8 73/83/8 80/94/8
f 69/79/3 79/93/3 76/88/3 70/80/3
f 76/88/5 79/93/5 65/75/5 66/76/5
f 74/85/7 78/92/7 67/77/7 68/78/7
f 75/87/1 68/78/1 67/77/1 77/90/1
f 34/37/10 84/99/10 74/85/10 68/78/10
f 48/54/9 42/47/9 78/91/9 71/81/9
f 30/33/10 31/34/10 63/73/10 62/72/10
f 36/40/10 34/37/10 68/78/10 75/87/10
f 45/51/9 44/50/9 80/94/9 65/75/9
f 28/31/10 25/28/10 57/67/10 50/56/10
f 38/42/10 35/38/10 70/80/10 76/88/10
f 43/49/9 45/51/9 65/75/9 79/93/9
f 26/29/9 27/30/9 49/55/9 58/68/9
f 42/48/9 46/52/9 67/77/9 78/92/9
f 1/1/10 4/5/10 51/58/10 60/70/10
f 46/52/9 41/46/9 77/90/9 67/77/9
f 83/97/9 2/2/9 59/69/9 52/60/9
f 5/7/9 8/11/9 55/65/9 54/64/9
f 7/10/10 6/8/10 53/61/10 56/66/10
f 6/9/10 1/1/10 60/70/10 53/62/10
f 19/22/6 20/23/6 112/142/6 106/136/6
f 10/13/4 17/20/4 111/141/4 109/139/4
f 16/19/3 23/26/3 120/150/3 118/148/3
f 40/44/4 29/32/4 82/96/4 81/95/4
f 29/32/4 3/3/4 83/98/4 82/96/4
f 3/3/4 37/41/4 84/100/4 83/98/4
f 37/41/4 40/44/4 81/95/4 84/100/4
f 40/44/10 37/41/10 87/103/10 88/104/10
f 3/3/9 29/32/9 86/102/9 85/101/9
f 37/41/2 3/3/2 85/101/2 87/103/2
f 29/32/1 40/44/1 88/104/1 86/102/1
f 88/104/4 87/103/4 85/101/4 86/102/4
f 21/24/7 22/25/7 119/149/7 115/145/7
f 14/17/9 13/16/9 90/108/9 89/106/9
f 10/13/10 9/12/10 92/113/10 91/110/10
f 12/15/10 11/14/10 94/118/10 93/115/10
f 16/19/9 15/18/9 96/122/9 95/121/9
f 18/21/10 17/20/10 98/125/10 97/123/10
f 22/25/9 21/24/9 100/128/9 99/127/9
f 24/27/9 23/26/9 102/131/9 101/129/9
f 20/23/10 19/22/10 104/134/10 103/133/10
f 13/16/9 22/25/9 99/127/9 90/108/9
f 17/20/10 10/13/10 91/110/10 98/125/10
f 9/12/10 12/15/10 93/115/10 92/113/10
f 15/18/9 14/17/9 89/106/9 96/122/9
f 19/22/10 18/21/10 97/123/10 104/134/10
f 11/14/10 20/23/10 103/133/10 94/118/10
f 23/26/9 16/19/9 95/121/9 102/131/9
f 21/24/9 24/27/9 101/129/9 100/128/9
f 111/141/10 108/138/10 107/137/10 109/139/10
f 105/135/10 106/136/10 112/142/10 110/140/10
f 107/137/10 108/138/10 106/136/10 105/135/10
f 9/12/8 10/13/8 109/139/8 107/137/8
f 12/15/2 9/12/2 107/137/2 105/135/2
f 17/20/7 18/21/7 108/138/7 111/141/7
f 20/23/3 11/14/3 110/140/3 112/142/3
f 11/14/5 12/15/5 105/135/5 110/140/5
f 117/147/9 116/146/9 115/145/9 119/149/9
f 113/143/9 114/144/9 118/148/9 120/150/9
f 115/145/9 116/146/9 114/144/9 113/143/9
f 22/25/4 13/16/4 117/147/4 119/149/4
f 23/26/6 24/27/6 113/143/6 120/150/6
f 24/27/1 21/24/1 115/145/1 113/143/1
f 14/17/2 15/18/2 114/144/2 116/146/2
f 13/16/8 14/17/8 116/146/8 117/147/8
o crate_door_01
v 0.216859 1.130071 0.192694
v 0.216859 1.130071 -0.197797
v 0.216859 1.085759 0.192694
v 0.216859 1.085759 -0.197797
v 0.004326 1.130071 0.192694
v 0.004326 1.130071 -0.197797
v 0.004326 1.085759 0.192694
v 0.004326 1.085759 -0.197797
vn 1.0000 -0.0000 -0.0000
vn -0.0000 -0.0000 1.0000
vn -0.0000 -0.0000 -1.0000
vn -0.0000 -1.0000 -0.0000
vn -0.0000 1.0000 -0.0000
vn -1.0000 -0.0000 -0.0000
vt 0.000000 0.000000
vt 0.000000 0.000000
vt 0.000000 0.000000
vt 0.000000 0.000000
vt 0.000000 0.000000
vt 0.000000 0.000000
vt 0.000000 0.000000
vt 0.000000 0.000000
s 0
f 121/151/11 123/153/11 124/154/11 122/152/11
f 125/155/12 127/157/12 123/153/12 121/151/12
f 122/152/13 124/154/13 128/158/13 126/156/13
f 123/153/14 127/157/14 128/158/14 124/154/14
f 121/151/15 122/152/15 126/156/15 125/155/15
f 127/157/16 125/155/16 126/156/16 128/158/16
o crate_hookRode
v 0.018441 1.109535 0.214697
v 0.028163 1.099812 0.214697
v 0.028163 1.128539 0.214697
v 0.018441 1.118816 0.214697
v 0.028163 1.099812 -0.215690
v 0.018441 1.109535 -0.215690
v 0.018441 1.118816 -0.215690
v 0.028163 1.128539 -0.215690
v 0.037445 1.099812 0.214697
v 0.047167 1.109535 0.214697
v 0.047167 1.118816 0.214697
v 0.037445 1.128539 0.214697
v 0.047167 1.109535 -0.215690
v 0.037445 1.099812 -0.215690
v 0.037445 1.128539 -0.215690
v 0.047167 1.118816 -0.215690
vn -0.0000 -0.0000 1.0000
vn 1.0000 -0.0000 -0.0000
vn -0.0000 1.0000 -0.0000
vn -1.0000 -0.0000 -0.0000
vn -0.0000 -0.0000 -1.0000
vn -0.7071 -0.7071 -0.0000
vn -0.7071 0.7071 -0.0000
vn 0.7071 -0.7071 -0.0000
vn 0.7071 0.7071 -0.0000
vn -0.0000 -1.0000 -0.0000
vt 0.459613 1.000000
vt 0.459613 0.000000
vt 0.125000 0.750000
vt 0.375000 0.915387
vt 0.209613 0.750000
vt 0.625000 0.915387
vt 0.790387 0.750000
vt 0.625000 0.000000
vt 0.540387 1.000000
vt 0.540387 0.000000
vt 0.375000 0.334613
vt 0.209613 0.500000
vt 0.459613 0.250000
vt 0.125000 0.500000
vt 0.540387 0.250000
vt 0.790387 0.500000
vt 0.625000 0.334613
vt 0.625000 0.250000
vt 0.375000 0.834613
vt 0.290387 0.750000
vt 0.459613 0.750000
vt 0.540387 0.750000
vt 0.625000 0.834613
vt 0.709613 0.750000
vt 0.459613 0.500000
vt 0.375000 0.415387
vt 0.290387 0.500000
vt 0.625000 0.415387
vt 0.709613 0.500000
vt 0.540387 0.500000
s 0
f 137/177/17 138/179/17 139/180/17 140/181/17 131/164/17 132/167/17 129/159/17 130/162/17
f 141/183/18 144/188/18 139/180/18 138/179/18
f 143/187/19 136/174/19 131/165/19 140/182/19
f 129/160/20 132/168/20 135/173/20 134/171/20
f 133/169/21 134/171/21 135/173/21 136/175/21 143/186/21 144/188/21 141/183/21 142/184/21
f 133/170/22 130/163/22 129/161/22 134/172/22
f 131/166/23 136/176/23 135/173/23 132/168/23
f 137/178/24 142/185/24 141/183/24 138/179/24
f 143/187/25 140/182/25 139/180/25 144/188/25
f 133/170/26 142/185/26 137/178/26 130/163/26
o crate_door_02
v -0.212582 1.085759 -0.197797
v -0.212582 1.085759 0.192694
v -0.212582 1.130071 -0.197797
v -0.212582 1.130071 0.192694
v -0.000049 1.085759 -0.197797
v -0.000049 1.085759 0.192694
v -0.000049 1.130071 -0.197797
v -0.000049 1.130071 0.192694
vn -0.0000 1.0000 -0.0000
vn -0.0000 -1.0000 -0.0000
vn -0.0000 -0.0000 -1.0000
vn -0.0000 -0.0000 1.0000
vn 1.0000 -0.0000 -0.0000
vn -1.0000 -0.0000 -0.0000
vt 0.000000 0.000000
vt 0.000000 0.000000
vt 0.000000 0.000000
vt 0.000000 0.000000
vt 0.000000 0.000000
vt 0.000000 0.000000
vt 0.000000 0.000000
vt 0.000000 0.000000
s 0
f 152/196/27 151/195/27 147/191/27 148/192/27
f 150/194/28 146/190/28 145/189/28 149/193/28
f 151/195/29 149/193/29 145/189/29 147/191/29
f 148/192/30 146/190/30 150/194/30 152/196/30
f 152/196/31 150/194/31 149/193/31 151/195/31
f 146/190/32 148/192/32 147/191/32 145/189/32
