{
    "asset" : {
        "generator" : "Khronos glTF Blender I/O v3.4.50",
        "version" : "2.0"
    },
    "scene" : 0,
    "scenes" : [
        {
            "name" : "Scene",
            "nodes" : [
                0
            ]
        }
    ],
    "nodes" : [
        {
            "mesh" : 0,
            "name" : "rock_pillar01"
        }
    ],
    "meshes" : [
        {
            "name" : "Cube",
            "primitives" : [
                {
                    "attributes" : {
                        "POSITION" : 0,
                        "TEXCOORD_0" : 1,
                        "NORMAL" : 2
                    },
                    "indices" : 3
                }
            ]
        }
    ],
    "accessors" : [
        {
            "bufferView" : 0,
            "componentType" : 5126,
            "count" : 14863,
            "max" : [
                2.343312978744507,
                4.893984794616699,
                2.393327236175537
            ],
            "min" : [
                -2.3633201122283936,
                -4.817946910858154,
                -2.3414173126220703
            ],
            "type" : "VEC3"
        },
        {
            "bufferView" : 1,
            "componentType" : 5126,
            "count" : 14863,
            "type" : "VEC2"
        },
        {
            "bufferView" : 2,
            "componentType" : 5126,
            "count" : 14863,
            "type" : "VEC3"
        },
        {
            "bufferView" : 3,
            "componentType" : 5123,
            "count" : 86016,
            "type" : "SCALAR"
        }
    ],
    "bufferViews" : [
        {
            "buffer" : 0,
            "byteLength" : 178356,
            "byteOffset" : 0,
            "target" : 34962
        },
        {
            "buffer" : 0,
            "byteLength" : 118904,
            "byteOffset" : 178356,
            "target" : 34962
        },
        {
            "buffer" : 0,
            "byteLength" : 178356,
            "byteOffset" : 297260,
            "target" : 34962
        },
        {
            "buffer" : 0,
            "byteLength" : 172032,
            "byteOffset" : 475616,
            "target" : 34963
        }
    ],
    "buffers" : [
        {
            "byteLength" : 647648,
            "uri" : "rocks_pillar01.bin"
        }
    ]
}
