{
    "asset" : {
        "generator" : "Khronos glTF Blender I/O v3.4.50",
        "version" : "2.0"
    },
    "scene" : 0,
    "scenes" : [
        {
            "name" : "Scene",
            "nodes" : [
                0
            ]
        }
    ],
    "nodes" : [
        {
            "mesh" : 0,
            "name" : "rock_pillar02"
        }
    ],
    "meshes" : [
        {
            "name" : "Cube.001",
            "primitives" : [
                {
                    "attributes" : {
                        "POSITION" : 0,
                        "TEXCOORD_0" : 1,
                        "NORMAL" : 2
                    },
                    "indices" : 3
                }
            ]
        }
    ],
    "accessors" : [
        {
            "bufferView" : 0,
            "componentType" : 5126,
            "count" : 19206,
            "max" : [
                2.5611443519592285,
                8.24401569366455,
                2.898202896118164
            ],
            "min" : [
                -1.7423261404037476,
                -4.803782939910889,
                -1.4034500122070312
            ],
            "type" : "VEC3"
        },
        {
            "bufferView" : 1,
            "componentType" : 5126,
            "count" : 19206,
            "type" : "VEC2"
        },
        {
            "bufferView" : 2,
            "componentType" : 5126,
            "count" : 19206,
            "type" : "VEC3"
        },
        {
            "bufferView" : 3,
            "componentType" : 5123,
            "count" : 110592,
            "type" : "SCALAR"
        }
    ],
    "bufferViews" : [
        {
            "buffer" : 0,
            "byteLength" : 230472,
            "byteOffset" : 0,
            "target" : 34962
        },
        {
            "buffer" : 0,
            "byteLength" : 153648,
            "byteOffset" : 230472,
            "target" : 34962
        },
        {
            "buffer" : 0,
            "byteLength" : 230472,
            "byteOffset" : 384120,
            "target" : 34962
        },
        {
            "buffer" : 0,
            "byteLength" : 221184,
            "byteOffset" : 614592,
            "target" : 34963
        }
    ],
    "buffers" : [
        {
            "byteLength" : 835776,
            "uri" : "rocks_pillar02.bin"
        }
    ]
}
