{
    "asset" : {
        "generator" : "Khronos glTF Blender I/O v3.4.50",
        "version" : "2.0"
    },
    "scene" : 0,
    "scenes" : [
        {
            "name" : "Scene",
            "nodes" : [
                0
            ]
        }
    ],
    "nodes" : [
        {
            "mesh" : 0,
            "name" : "rock_pillar04"
        }
    ],
    "meshes" : [
        {
            "name" : "Cube.003",
            "primitives" : [
                {
                    "attributes" : {
                        "POSITION" : 0,
                        "TEXCOORD_0" : 1,
                        "NORMAL" : 2
                    },
                    "indices" : 3
                }
            ]
        }
    ],
    "accessors" : [
        {
            "bufferView" : 0,
            "componentType" : 5126,
            "count" : 19030,
            "max" : [
                2.3931353092193604,
                4.893984794616699,
                2.4250197410583496
            ],
            "min" : [
                -2.416898012161255,
                -4.817946910858154,
                -2.376058578491211
            ],
            "type" : "VEC3"
        },
        {
            "bufferView" : 1,
            "componentType" : 5126,
            "count" : 19030,
            "type" : "VEC2"
        },
        {
            "bufferView" : 2,
            "componentType" : 5126,
            "count" : 19030,
            "type" : "VEC3"
        },
        {
            "bufferView" : 3,
            "componentType" : 5123,
            "count" : 110592,
            "type" : "SCALAR"
        }
    ],
    "bufferViews" : [
        {
            "buffer" : 0,
            "byteLength" : 228360,
            "byteOffset" : 0,
            "target" : 34962
        },
        {
            "buffer" : 0,
            "byteLength" : 152240,
            "byteOffset" : 228360,
            "target" : 34962
        },
        {
            "buffer" : 0,
            "byteLength" : 228360,
            "byteOffset" : 380600,
            "target" : 34962
        },
        {
            "buffer" : 0,
            "byteLength" : 221184,
            "byteOffset" : 608960,
            "target" : 34963
        }
    ],
    "buffers" : [
        {
            "byteLength" : 830144,
            "uri" : "rocks_pillar04.bin"
        }
    ]
}
