{
    "asset" : {
        "generator" : "Khronos glTF Blender I/O v3.4.50",
        "version" : "2.0"
    },
    "scene" : 0,
    "scenes" : [
        {
            "name" : "Scene",
            "nodes" : [
                0
            ]
        }
    ],
    "nodes" : [
        {
            "mesh" : 0,
            "name" : "rock_slab02"
        }
    ],
    "materials" : [
        {
            "doubleSided" : true,
            "name" : "Material",
            "normalTexture" : {
                "index" : 0
            },
            "pbrMetallicRoughness" : {
                "baseColorTexture" : {
                    "index" : 1
                },
                "metallicFactor" : 0,
                "metallicRoughnessTexture" : {
                    "index" : 2
                }
            }
        }
    ],
    "meshes" : [
        {
            "name" : "Cube.005",
            "primitives" : [
                {
                    "attributes" : {
                        "POSITION" : 0,
                        "TEXCOORD_0" : 1,
                        "NORMAL" : 2
                    },
                    "indices" : 3,
                    "material" : 0
                }
            ]
        }
    ],
    "textures" : [
        {
            "sampler" : 0,
            "source" : 0
        },
        {
            "sampler" : 0,
            "source" : 1
        },
        {
            "sampler" : 0,
            "source" : 2
        }
    ],
    "images" : [
        {
            "mimeType" : "image/jpeg",
            "name" : "Rock020_1K-JPG_NormalGL",
            "uri" : "Rock020_1K-JPG_NormalGL.jpg"
        },
        {
            "mimeType" : "image/jpeg",
            "name" : "Rock020_1K-JPG_Color",
            "uri" : "Rock020_1K-JPG_Color.jpg"
        },
        {
            "mimeType" : "image/png",
            "name" : "Rock020_1K-JPG_Roughness",
            "uri" : "Rock020_1K-JPG_Roughness.png"
        }
    ],
    "accessors" : [
        {
            "bufferView" : 0,
            "componentType" : 5126,
            "count" : 26218,
            "max" : [
                2.790458917617798,
                0.7615455985069275,
                3.0608508586883545
            ],
            "min" : [
                -3.821035146713257,
                -1.9763462543487549,
                -4.594083786010742
            ],
            "type" : "VEC3"
        },
        {
            "bufferView" : 1,
            "componentType" : 5126,
            "count" : 26218,
            "type" : "VEC2"
        },
        {
            "bufferView" : 2,
            "componentType" : 5126,
            "count" : 26218,
            "type" : "VEC3"
        },
        {
            "bufferView" : 3,
            "componentType" : 5123,
            "count" : 150528,
            "type" : "SCALAR"
        }
    ],
    "bufferViews" : [
        {
            "buffer" : 0,
            "byteLength" : 314616,
            "byteOffset" : 0,
            "target" : 34962
        },
        {
            "buffer" : 0,
            "byteLength" : 209744,
            "byteOffset" : 314616,
            "target" : 34962
        },
        {
            "buffer" : 0,
            "byteLength" : 314616,
            "byteOffset" : 524360,
            "target" : 34962
        },
        {
            "buffer" : 0,
            "byteLength" : 301056,
            "byteOffset" : 838976,
            "target" : 34963
        }
    ],
    "samplers" : [
        {
            "magFilter" : 9729,
            "minFilter" : 9987
        }
    ],
    "buffers" : [
        {
            "byteLength" : 1140032,
            "uri" : "rocks_slab01.bin"
        }
    ]
}
