{
    "asset" : {
        "generator" : "Khronos glTF Blender I/O v3.4.50",
        "version" : "2.0"
    },
    "scene" : 0,
    "scenes" : [
        {
            "name" : "Scene",
            "nodes" : [
                0
            ]
        }
    ],
    "nodes" : [
        {
            "mesh" : 0,
            "name" : "rock_pillar03"
        }
    ],
    "meshes" : [
        {
            "name" : "Cube.002",
            "primitives" : [
                {
                    "attributes" : {
                        "POSITION" : 0,
                        "TEXCOORD_0" : 1,
                        "NORMAL" : 2
                    },
                    "indices" : 3
                }
            ]
        }
    ],
    "accessors" : [
        {
            "bufferView" : 0,
            "componentType" : 5126,
            "count" : 23430,
            "max" : [
                2.1278762817382812,
                14.649774551391602,
                3.4840075969696045
            ],
            "min" : [
                -3.8224740028381348,
                -4.770849227905273,
                -2.729534149169922
            ],
            "type" : "VEC3"
        },
        {
            "bufferView" : 1,
            "componentType" : 5126,
            "count" : 23430,
            "type" : "VEC2"
        },
        {
            "bufferView" : 2,
            "componentType" : 5126,
            "count" : 23430,
            "type" : "VEC3"
        },
        {
            "bufferView" : 3,
            "componentType" : 5123,
            "count" : 135168,
            "type" : "SCALAR"
        }
    ],
    "bufferViews" : [
        {
            "buffer" : 0,
            "byteLength" : 281160,
            "byteOffset" : 0,
            "target" : 34962
        },
        {
            "buffer" : 0,
            "byteLength" : 187440,
            "byteOffset" : 281160,
            "target" : 34962
        },
        {
            "buffer" : 0,
            "byteLength" : 281160,
            "byteOffset" : 468600,
            "target" : 34962
        },
        {
            "buffer" : 0,
            "byteLength" : 270336,
            "byteOffset" : 749760,
            "target" : 34963
        }
    ],
    "buffers" : [
        {
            "byteLength" : 1020096,
            "uri" : "rocks_pillar03.bin"
        }
    ]
}
