{
    "asset" : {
        "generator" : "Khronos glTF Blender I/O v3.4.50",
        "version" : "2.0"
    },
    "scene" : 0,
    "scenes" : [
        {
            "name" : "Scene",
            "nodes" : [
                0
            ]
        }
    ],
    "nodes" : [
        {
            "mesh" : 0,
            "name" : "rock_slab01"
        }
    ],
    "meshes" : [
        {
            "name" : "Cube.004",
            "primitives" : [
                {
                    "attributes" : {
                        "POSITION" : 0,
                        "TEXCOORD_0" : 1,
                        "NORMAL" : 2
                    },
                    "indices" : 3
                }
            ]
        }
    ],
    "accessors" : [
        {
            "bufferView" : 0,
            "componentType" : 5126,
            "count" : 33975,
            "max" : [
                1.8169584274291992,
                4.634626865386963,
                0.9627288579940796
            ],
            "min" : [
                -2.1958842277526855,
                -4.56059455871582,
                -1.8548355102539062
            ],
            "type" : "VEC3"
        },
        {
            "bufferView" : 1,
            "componentType" : 5126,
            "count" : 33975,
            "type" : "VEC2"
        },
        {
            "bufferView" : 2,
            "componentType" : 5126,
            "count" : 33975,
            "type" : "VEC3"
        },
        {
            "bufferView" : 3,
            "componentType" : 5123,
            "count" : 196608,
            "type" : "SCALAR"
        }
    ],
    "bufferViews" : [
        {
            "buffer" : 0,
            "byteLength" : 407700,
            "byteOffset" : 0,
            "target" : 34962
        },
        {
            "buffer" : 0,
            "byteLength" : 271800,
            "byteOffset" : 407700,
            "target" : 34962
        },
        {
            "buffer" : 0,
            "byteLength" : 407700,
            "byteOffset" : 679500,
            "target" : 34962
        },
        {
            "buffer" : 0,
            "byteLength" : 393216,
            "byteOffset" : 1087200,
            "target" : 34963
        }
    ],
    "buffers" : [
        {
            "byteLength" : 1480416,
            "uri" : "rocks_slab02.bin"
        }
    ]
}
