# Blender 4.0.1
# www.blender.org
mtllib floor.mtl
o floor
v 1.000000 -0.715125 -2.379991
v 1.000000 -0.715125 3.115869
v -1.000000 -0.715125 -2.379991
v -1.000000 -0.715125 3.115869
v 0.000000 -0.715125 4.093438
v 0.000000 -0.715125 -2.379991
v 0.500000 -0.715125 -2.379991
v 0.500000 -0.715125 4.011400
v -0.500000 -0.715125 4.011400
v -0.500000 -0.715125 -2.379991
v -0.750000 -0.715125 3.833653
v -0.750000 -0.715125 -2.379991
v 0.750000 -0.715125 -2.379991
v 0.750000 -0.715125 3.833653
v -0.712538 -0.715125 3.806996
v -0.956566 -0.715125 3.109655
v 0.956566 -0.715125 -2.336557
v 0.956566 -0.715125 3.109655
v -0.956566 -0.715125 -2.336557
v 0.750000 -0.715125 -2.336557
v 0.483035 -0.715125 3.970169
v 0.000000 -0.715125 4.049423
v -0.500000 -0.715125 -2.336557
v 0.000000 -0.715125 -2.336557
v 0.500000 -0.715125 -2.336557
v 0.712538 -0.715125 3.806996
v -0.483035 -0.715125 3.970169
v -0.750000 -0.715125 -2.336557
v 1.000000 -0.715125 -1.041946
v -1.000000 -0.715125 -1.041946
v 0.956566 -0.715125 -1.041946
v -0.956566 -0.715125 -1.041946
v 0.742442 -0.715125 -1.041946
v 0.442677 -0.715125 -0.988204
v 0.000000 -0.715125 -0.988204
v -0.442677 -0.715125 -0.988204
v -0.742442 -0.715125 -1.041946
v 1.000000 -0.715125 1.494103
v -0.956566 -0.715125 1.494103
v 0.725968 -0.715125 1.494103
v 0.435534 -0.715125 1.440361
v 0.000000 -0.715125 1.440361
v -0.435534 -0.715125 1.440361
v -0.725968 -0.715125 1.494103
v -1.000000 -0.715125 1.494103
v 0.956566 -0.715125 1.494103
v -0.496577 -0.715125 -1.041946
v 0.000000 -0.715125 -1.041946
v 0.496577 -0.715125 -1.041946
v 0.489117 -0.715125 1.494103
v -0.489117 -0.715125 1.494103
v 0.000000 -0.715125 1.494103
vn -0.0000 1.0000 -0.0000
vt 0.444452 0.019095
vt 0.406803 0.019095
vt 0.406803 0.012554
vt 0.444452 0.012554
vt 0.595051 0.019095
vt 0.519752 0.019095
vt 0.519752 0.012554
vt 0.595051 0.012554
vt 0.375694 0.839289
vt 0.412445 0.944308
vt 0.406803 0.948323
vt 0.369153 0.840225
vt 0.447007 0.968882
vt 0.444453 0.975091
vt 0.627060 0.944308
vt 0.663810 0.839289
vt 0.670351 0.840225
vt 0.632701 0.948322
vt 0.519752 0.980817
vt 0.592497 0.968882
vt 0.595052 0.975091
vt 0.519752 0.987446
vt 0.375694 0.595989
vt 0.369153 0.595989
vt 0.632701 0.019095
vt 0.632701 0.012554
vt 0.663810 0.214062
vt 0.663810 0.019095
vt 0.670351 0.012554
vt 0.670351 0.214062
vt 0.375694 0.019095
vt 0.369153 0.012554
vt 0.410422 0.595989
vt 0.446091 0.595989
vt 0.519752 0.595989
vt 0.593413 0.595989
vt 0.629082 0.595989
vt 0.663810 0.595989
vt 0.631563 0.214062
vt 0.594536 0.214062
vt 0.519752 0.214062
vt 0.444968 0.214062
vt 0.407941 0.214062
vt 0.375694 0.214062
vt 0.670351 0.595989
vt 0.369153 0.214062
vt 0.519752 0.222156
vt 0.586419 0.222156
vt 0.585343 0.587895
vt 0.519752 0.587895
vt 0.453085 0.222156
vt 0.454161 0.587895
s 0
usemtl texture
f 25/1/1 20/2/1 13/3/1 7/4/1
f 23/5/1 24/6/1 6/7/1 10/8/1
f 18/9/1 26/10/1 14/11/1 2/12/1
f 24/6/1 25/1/1 7/4/1 6/7/1
f 26/10/1 21/13/1 8/14/1 14/11/1
f 15/15/1 16/16/1 4/17/1 11/18/1
f 22/19/1 27/20/1 9/21/1 5/22/1
f 46/23/1 18/9/1 2/12/1 38/24/1
f 28/25/1 23/5/1 10/8/1 12/26/1
f 32/27/1 19/28/1 3/29/1 30/30/1
f 27/20/1 15/15/1 11/18/1 9/21/1
f 20/2/1 17/31/1 1/32/1 13/3/1
f 19/28/1 28/25/1 12/26/1 3/29/1
f 21/13/1 22/19/1 5/22/1 8/14/1
f 46/23/1 40/33/1 26/10/1 18/9/1
f 40/33/1 50/34/1 21/13/1 26/10/1
f 50/34/1 52/35/1 22/19/1 21/13/1
f 52/35/1 51/36/1 27/20/1 22/19/1
f 51/36/1 44/37/1 15/15/1 27/20/1
f 44/37/1 39/38/1 16/16/1 15/15/1
f 28/25/1 19/28/1 32/27/1 37/39/1
f 23/5/1 28/25/1 37/39/1 47/40/1
f 24/6/1 23/5/1 47/40/1 48/41/1
f 25/1/1 24/6/1 48/41/1 49/42/1
f 20/2/1 25/1/1 49/42/1 33/43/1
f 17/31/1 20/2/1 33/43/1 31/44/1
f 39/38/1 32/27/1 30/30/1 45/45/1
f 17/31/1 31/44/1 29/46/1 1/32/1
f 16/16/1 39/38/1 45/45/1 4/17/1
f 37/39/1 32/27/1 39/38/1 44/37/1
f 47/40/1 37/39/1 44/37/1 51/36/1
f 35/47/1 36/48/1 43/49/1 42/50/1
f 34/51/1 35/47/1 42/50/1 41/52/1
f 33/43/1 49/42/1 50/34/1 40/33/1
f 31/44/1 33/43/1 40/33/1 46/23/1
f 31/44/1 46/23/1 38/24/1 29/46/1
f 36/48/1 35/47/1 48/41/1 47/40/1
f 35/47/1 34/51/1 49/42/1 48/41/1
f 34/51/1 41/52/1 50/34/1 49/42/1
f 43/49/1 36/48/1 47/40/1 51/36/1
f 42/50/1 43/49/1 51/36/1 52/35/1
f 41/52/1 42/50/1 52/35/1 50/34/1
