# Blender 4.0.1
# www.blender.org
mtllib glass.mtl
o frontGlass
v -0.797070 -0.755098 3.866402
v -0.795097 0.792549 3.866402
v -0.968524 -0.914121 3.117240
v -0.903096 -0.861124 3.575755
v -0.822587 -0.425915 3.972427
v -0.875585 -0.000000 4.025425
v -0.822587 0.425915 3.972427
v -0.901122 0.898574 3.575755
v -0.966551 0.951571 3.117240
v -0.425915 -0.822587 3.972427
v 0.000000 -0.875585 4.025424
v 0.000000 0.875585 4.025424
v -0.425915 0.822587 3.972427
v -1.051319 -0.455949 3.605789
v -1.131064 -0.000000 3.631791
v -1.051319 0.455949 3.605789
v -1.147123 -0.481951 3.117240
v -1.239364 0.000000 3.117240
v -1.147123 0.481951 3.117240
v 0.000000 -0.481951 4.280904
v 0.000000 0.000000 4.371854
v 0.000000 0.481951 4.280904
v -0.455949 -0.455949 4.201159
v -0.481951 0.000000 4.280904
v -0.455949 0.455949 4.201159
v -0.488794 -1.131064 3.117240
v 0.000000 -1.222014 3.117240
v -0.455949 -1.051319 3.605789
v 0.000000 -1.131064 3.631791
v 0.000000 1.222014 3.117240
v -0.488794 1.131064 3.117240
v 0.000000 1.131064 3.631791
v -0.455949 1.051319 3.605789
v -0.872140 -0.451572 3.985003
v -0.872140 0.451572 3.985003
v 0.872140 0.451572 3.985003
v 0.872140 -0.451572 3.985004
v -1.114651 -0.483415 3.596278
v -1.114651 0.483415 3.596278
v -1.199199 -0.510984 3.112863
v -1.199200 0.510984 3.112863
v 1.199199 -0.510984 3.112863
v 1.199199 0.510984 3.112863
v 1.114651 -0.483415 3.596278
v 1.114651 0.483415 3.596278
v 0.483415 -0.483415 4.227514
v 0.483415 0.483415 4.227514
v 0.000000 -0.510984 4.312062
v 0.000000 0.510984 4.312062
v -0.483415 -0.483415 4.227514
v -0.483415 0.483415 4.227514
v -0.809829 -0.590506 3.919415
v -1.088961 -0.695772 3.117240
v -1.008345 -0.656272 3.590772
v -0.440932 -0.639268 4.086793
v 0.000000 -0.678768 4.153164
v -0.880594 0.228789 3.998926
v -1.122699 0.243806 3.618790
v -1.224751 0.256807 3.117240
v 0.000000 0.240976 4.326379
v -0.468950 0.227974 4.241031
v -0.882451 -0.209028 3.998926
v -1.124556 -0.224045 3.618790
v -1.226608 -0.237046 3.117240
v 0.000000 -0.240976 4.326379
v -0.468950 -0.227974 4.241031
v 0.797070 -0.755098 3.866402
v 0.795097 0.792549 3.866402
v 0.968524 -0.914121 3.117240
v 0.903096 -0.861124 3.575755
v 0.822587 -0.425915 3.972427
v 0.875585 -0.000000 4.025425
v 0.822587 0.425915 3.972427
v 0.901122 0.898574 3.575755
v 0.966551 0.951571 3.117240
v 0.425915 -0.822587 3.972427
v 0.425915 0.822587 3.972427
v 1.051319 -0.455949 3.605789
v 1.131064 -0.000000 3.631791
v 1.051319 0.455949 3.605789
v 1.147123 -0.481951 3.117240
v 1.239364 0.000000 3.117240
v 1.147123 0.481951 3.117240
v 0.455949 -0.455949 4.201159
v 0.481951 0.000000 4.280904
v 0.455949 0.455949 4.201159
v 0.488794 -1.131064 3.117240
v 0.455949 -1.051319 3.605789
v 0.488794 1.131064 3.117240
v 0.455949 1.051319 3.605789
v 0.872140 -0.451572 3.985003
v 0.872140 0.451572 3.985003
v -0.872140 0.451572 3.985003
v -0.872140 -0.451572 3.985004
v 1.114651 -0.483415 3.596278
v 1.114651 0.483415 3.596278
v 1.199199 -0.510984 3.112863
v 1.199200 0.510984 3.112863
v -1.199199 -0.510984 3.112863
v -1.199199 0.510984 3.112863
v -1.114651 -0.483415 3.596278
v -1.114651 0.483415 3.596278
v -0.483415 -0.483415 4.227514
v -0.483415 0.483415 4.227514
v 0.483415 -0.483415 4.227514
v 0.483415 0.483415 4.227514
v 0.809829 -0.590506 3.919415
v 1.088961 -0.695772 3.117240
v 1.008345 -0.656272 3.590772
v 0.440932 -0.639268 4.086793
v 0.880594 0.228789 3.998926
v 1.122699 0.243806 3.618790
v 1.224751 0.256807 3.117240
v 0.468950 0.227974 4.241031
v 0.882451 -0.209028 3.998926
v 1.124556 -0.224045 3.618790
v 1.226608 -0.237046 3.117240
v 0.468950 -0.227974 4.241031
vn -0.9781 -0.0466 0.2031
vn -0.9261 0.3214 0.1977
vn -0.8163 -0.2239 0.5325
vn -0.8397 -0.0486 0.5409
vn -0.7979 0.3026 0.5213
vn -0.8361 0.2644 0.4806
vn -0.9219 0.3404 0.1853
vn -0.9520 -0.2394 0.1909
vn -0.1817 -0.1809 0.9666
vn -0.1802 0.1810 0.9668
vn -0.1724 0.5340 0.8277
vn -0.4057 0.4057 0.8190
vn -0.5114 0.2153 0.8319
vn -0.5223 -0.1352 0.8420
vn -0.4656 -0.4136 0.7824
vn -0.1738 -0.5339 0.8275
vn -0.1797 -0.9688 0.1707
vn -0.1724 -0.8277 0.5340
vn -0.3351 -0.8097 0.4818
vn -0.4010 -0.9006 0.1678
vn -0.1797 0.9688 0.1707
vn -0.3388 0.9263 0.1650
vn -0.2677 0.8350 0.4807
vn -0.1724 0.8277 0.5340
vn -0.1710 -0.5341 0.8280
vn -0.3716 -0.4264 0.8247
vn -0.8649 -0.4677 0.1819
vn -0.8005 -0.3458 0.4896
vn -0.5210 0.1317 0.8434
vn -0.1817 0.1809 0.9666
vn -0.8395 0.0512 0.5409
vn -0.9779 0.0502 0.2031
vn -0.5149 -0.2084 0.8315
vn -0.1802 -0.1810 0.9668
vn -0.8032 -0.2843 0.5235
vn -0.9319 -0.3039 0.1982
vn 0.9781 -0.0466 0.2031
vn 0.9261 0.3214 0.1977
vn 0.8163 -0.2239 0.5325
vn 0.8397 -0.0486 0.5409
vn 0.7979 0.3026 0.5213
vn 0.8361 0.2644 0.4806
vn 0.9219 0.3404 0.1853
vn 0.9520 -0.2394 0.1909
vn 0.1817 -0.1809 0.9666
vn 0.1802 0.1810 0.9668
vn 0.1724 0.5340 0.8277
vn 0.4057 0.4057 0.8190
vn 0.5114 0.2153 0.8319
vn 0.5223 -0.1352 0.8420
vn 0.4656 -0.4136 0.7824
vn 0.1738 -0.5339 0.8275
vn 0.1797 -0.9688 0.1707
vn 0.1724 -0.8277 0.5340
vn 0.3351 -0.8097 0.4818
vn 0.4010 -0.9006 0.1678
vn 0.1797 0.9688 0.1707
vn 0.3388 0.9263 0.1650
vn 0.2677 0.8350 0.4807
vn 0.1724 0.8277 0.5340
vn 0.1710 -0.5341 0.8280
vn 0.3716 -0.4264 0.8247
vn 0.8649 -0.4677 0.1819
vn 0.8005 -0.3458 0.4896
vn 0.5210 0.1317 0.8434
vn 0.1817 0.1809 0.9666
vn 0.8395 0.0512 0.5409
vn 0.9779 0.0502 0.2031
vn 0.5149 -0.2084 0.8315
vn 0.1802 -0.1810 0.9668
vn 0.8032 -0.2843 0.5235
vn 0.9319 -0.3039 0.1982
vt 0.468750 0.062500
vt 0.500000 0.062500
vt 0.500000 0.125000
vt 0.468750 0.125000
vt 0.531250 0.062500
vt 0.562500 0.062500
vt 0.562500 0.125000
vt 0.531250 0.125000
vt 0.406250 0.000000
vt 0.437500 0.000000
vt 0.437500 0.062500
vt 0.406250 0.062500
vt 0.468750 0.000000
vt 0.500000 0.000000
vt 0.531250 0.000000
vt 0.562500 0.000000
vt 0.625000 0.000000
vt 0.625000 0.062500
vt 0.625000 0.125000
vt 0.437500 0.125000
vt 0.406250 0.125000
vt 0.468750 0.875000
vt 0.500000 0.875000
vt 0.500000 0.937500
vt 0.468750 0.937500
vt 0.531250 0.875000
vt 0.562500 0.875000
vt 0.562500 0.937500
vt 0.531250 0.937500
vt 0.625000 0.875000
vt 0.625000 0.937500
vt 0.625000 1.000000
vt 0.562500 1.000000
vt 0.531250 1.000000
vt 0.500000 1.000000
vt 0.468750 1.000000
vt 0.406250 0.937500
vt 0.437500 0.937500
vt 0.437500 1.000000
vt 0.406250 1.000000
vt 0.406250 0.875000
vt 0.437500 0.875000
vt 0.187500 0.625000
vt 0.250000 0.625000
vt 0.250000 0.687500
vt 0.187500 0.687500
vt 0.250000 0.750000
vt 0.187500 0.750000
vt 0.125000 0.687500
vt 0.125000 0.750000
vt 0.125000 0.625000
vt 0.750000 0.625000
vt 0.812500 0.625000
vt 0.812500 0.687500
vt 0.750000 0.687500
vt 0.875000 0.625000
vt 0.875000 0.687500
vt 0.875000 0.750000
vt 0.812500 0.750000
vt 0.750000 0.750000
vt 0.375000 0.875000
vt 0.375000 0.937500
vt 0.375000 1.000000
vt 0.375000 0.062500
vt 0.375000 0.125000
vt 0.375000 0.000000
s 0
f 63/1/1 15/2/1 18/3/1 64/4/1
f 58/5/2 16/6/2 19/7/2 59/8/2
f 52/9/3 5/10/3 14/11/3 54/12/3
f 62/13/4 6/14/4 15/2/4 63/1/4
f 57/15/5 7/16/5 16/6/5 58/5/5
f 7/16/6 2/17/6 8/18/6 16/6/6
f 16/6/7 8/18/7 9/19/7 19/7/7
f 54/12/8 14/11/8 17/20/8 53/21/8
f 65/22/9 21/23/9 24/24/9 66/25/9
f 60/26/10 22/27/10 25/28/10 61/29/10
f 22/27/11 12/30/11 13/31/11 25/28/11
f 25/28/12 13/31/12 2/32/12 7/33/12
f 61/29/13 25/28/13 7/33/13 57/34/13
f 66/25/14 24/24/14 6/35/14 62/36/14
f 55/37/15 23/38/15 5/39/15 52/40/15
f 56/41/16 20/42/16 23/38/16 55/37/16
f 26/43/17 27/44/17 29/45/17 28/46/17
f 28/46/18 29/45/18 11/47/18 10/48/18
f 4/49/19 28/46/19 10/48/19 1/50/19
f 3/51/20 26/43/20 28/46/20 4/49/20
f 30/52/21 31/53/21 33/54/21 32/55/21
f 31/53/22 9/56/22 8/57/22 33/54/22
f 33/54/23 8/57/23 2/58/23 13/59/23
f 32/55/24 33/54/24 13/59/24 12/60/24
f 11/61/25 56/41/25 55/37/25 10/62/25
f 10/62/26 55/37/26 52/40/26 1/63/26
f 4/64/27 54/12/27 53/21/27 3/65/27
f 1/66/28 52/9/28 54/12/28 4/64/28
f 24/24/29 61/29/29 57/34/29 6/35/29
f 21/23/30 60/26/30 61/29/30 24/24/30
f 6/14/31 57/15/31 58/5/31 15/2/31
f 15/2/32 58/5/32 59/8/32 18/3/32
f 23/38/33 66/25/33 62/36/33 5/39/33
f 20/42/34 65/22/34 66/25/34 23/38/34
f 5/10/35 62/13/35 63/1/35 14/11/35
f 14/11/36 63/1/36 64/4/36 17/20/36
f 116/1/37 117/4/37 82/3/37 79/2/37
f 112/5/38 113/8/38 83/7/38 80/6/38
f 107/9/39 109/12/39 78/11/39 71/10/39
f 115/13/40 116/1/40 79/2/40 72/14/40
f 111/15/41 112/5/41 80/6/41 73/16/41
f 73/16/42 80/6/42 74/18/42 68/17/42
f 80/6/43 83/7/43 75/19/43 74/18/43
f 109/12/44 108/21/44 81/20/44 78/11/44
f 65/22/45 118/25/45 85/24/45 21/23/45
f 60/26/46 114/29/46 86/28/46 22/27/46
f 22/27/47 86/28/47 77/31/47 12/30/47
f 86/28/48 73/33/48 68/32/48 77/31/48
f 114/29/49 111/34/49 73/33/49 86/28/49
f 118/25/50 115/36/50 72/35/50 85/24/50
f 110/37/51 107/40/51 71/39/51 84/38/51
f 56/41/52 110/37/52 84/38/52 20/42/52
f 87/43/53 88/46/53 29/45/53 27/44/53
f 88/46/54 76/48/54 11/47/54 29/45/54
f 70/49/55 67/50/55 76/48/55 88/46/55
f 69/51/56 70/49/56 88/46/56 87/43/56
f 30/52/57 32/55/57 90/54/57 89/53/57
f 89/53/58 90/54/58 74/57/58 75/56/58
f 90/54/59 77/59/59 68/58/59 74/57/59
f 32/55/60 12/60/60 77/59/60 90/54/60
f 11/61/61 76/62/61 110/37/61 56/41/61
f 76/62/62 67/63/62 107/40/62 110/37/62
f 70/64/63 69/65/63 108/21/63 109/12/63
f 67/66/64 70/64/64 109/12/64 107/9/64
f 85/24/65 72/35/65 111/34/65 114/29/65
f 21/23/66 85/24/66 114/29/66 60/26/66
f 72/14/67 79/2/67 112/5/67 111/15/67
f 79/2/68 82/3/68 113/8/68 112/5/68
f 84/38/69 71/39/69 115/36/69 118/25/69
f 20/42/70 84/38/70 118/25/70 65/22/70
f 71/10/71 78/11/71 116/1/71 115/13/71
f 78/11/72 81/20/72 117/4/72 116/1/72
l 38 40
l 39 41
l 34 38
l 35 39
l 42 44
l 43 45
l 36 45
l 37 44
l 46 48
l 47 49
l 48 50
l 49 51
l 37 46
l 36 47
l 35 51
l 34 50
l 95 97
l 96 98
l 91 95
l 92 96
l 99 101
l 100 102
l 93 102
l 94 101
l 103 48
l 104 49
l 48 105
l 49 106
l 94 103
l 93 104
l 92 106
l 91 105
