{
	"asset":{
		"generator":"Khronos glTF Blender I/O v3.6.27",
		"version":"2.0"
	},
	"scene":0,
	"scenes":[
		{
			"name":"Scene",
			"nodes":[
				0
			]
		}
	],
	"nodes":[
		{
			"mesh":0,
			"name":"monitor_02"
		}
	],
	"meshes":[
		{
			"name":"Plane.004",
			"primitives":[
				{
					"attributes":{
						"POSITION":0,
						"NORMAL":1,
						"TEXCOORD_0":2
					},
					"indices":3
				}
			]
		}
	],
	"accessors":[
		{
			"bufferView":0,
			"componentType":5126,
			"count":186,
			"max":[
				0.481797993183136,
				0.03602300211787224,
				0.18661554157733917
			],
			"min":[
				-0.4637626111507416,
				3.055483102798462e-05,
				-0.33093324303627014
			],
			"type":"VEC3"
		},
		{
			"bufferView":1,
			"componentType":5126,
			"count":186,
			"type":"VEC3"
		},
		{
			"bufferView":2,
			"componentType":5126,
			"count":186,
			"type":"VEC2"
		},
		{
			"bufferView":3,
			"componentType":5123,
			"count":564,
			"type":"SCALAR"
		}
	],
	"bufferViews":[
		{
			"buffer":0,
			"byteLength":2232,
			"byteOffset":0,
			"target":34962
		},
		{
			"buffer":0,
			"byteLength":2232,
			"byteOffset":2232,
			"target":34962
		},
		{
			"buffer":0,
			"byteLength":1488,
			"byteOffset":4464,
			"target":34962
		},
		{
			"buffer":0,
			"byteLength":1128,
			"byteOffset":5952,
			"target":34963
		}
	],
	"buffers":[
		{
			"byteLength":7080,
			"uri":"data:application/octet-stream;base64,"
		}
	]
}
