{
	"asset":{
		"generator":"Khronos glTF Blender I/O v3.6.28",
		"version":"2.0"
	},
	"scene":0,
	"scenes":[
		{
			"name":"Scene",
			"nodes":[
				0,
				1,
				2,
				3,
				4,
				5
			]
		}
	],
	"nodes":[
		{
			"mesh":0,
			"name":"hull"
		},
		{
			"mesh":1,
			"name":"ballast_tanks"
		},
		{
			"mesh":2,
			"name":"propeller_shroud",
			"scale":[
				1.2471082210540771,
				1.2471082210540771,
				0.32480859756469727
			],
			"translation":[
				0,
				0,
				-3.6261210441589355
			]
		},
		{
			"mesh":3,
			"name":"window"
		},
		{
			"mesh":4,
			"name":"door"
		},
		{
			"mesh":5,
			"name":"seat",
			"translation":[
				0,
				-0.5161723494529724,
				2.5456621646881104
			]
		}
	],
	"meshes":[
		{
			"name":"Cube",
			"primitives":[
				{
					"attributes":{
						"POSITION":0,
						"NORMAL":1,
						"TEXCOORD_0":2
					},
					"indices":3
				}
			]
		},
		{
			"name":"Mesh",
			"primitives":[
				{
					"attributes":{
						"POSITION":4,
						"NORMAL":5,
						"TEXCOORD_0":6
					},
					"indices":7
				}
			]
		},
		{
			"name":"Cylinder.002",
			"primitives":[
				{
					"attributes":{
						"POSITION":8,
						"NORMAL":9,
						"TEXCOORD_0":10
					},
					"indices":11
				}
			]
		},
		{
			"name":"Cube.002",
			"primitives":[
				{
					"attributes":{
						"POSITION":12,
						"NORMAL":13,
						"TEXCOORD_0":14
					},
					"indices":15
				}
			]
		},
		{
			"name":"Cube.003",
			"primitives":[
				{
					"attributes":{
						"POSITION":16,
						"NORMAL":17,
						"TEXCOORD_0":18
					},
					"indices":19
				}
			]
		},
		{
			"name":"Cube.004",
			"primitives":[
				{
					"attributes":{
						"POSITION":20,
						"NORMAL":21,
						"TEXCOORD_0":22
					},
					"indices":23
				}
			]
		}
	],
	"accessors":[
		{
			"bufferView":0,
			"componentType":5126,
			"count":2786,
			"max":[
				1.4450325965881348,
				2.2772934436798096,
				3.1312451362609863
			],
			"min":[
				-1.4450325965881348,
				-1.5165276527404785,
				-3.642397403717041
			],
			"type":"VEC3"
		},
		{
			"bufferView":1,
			"componentType":5126,
			"count":2786,
			"type":"VEC3"
		},
		{
			"bufferView":2,
			"componentType":5126,
			"count":2786,
			"type":"VEC2"
		},
		{
			"bufferView":3,
			"componentType":5123,
			"count":4440,
			"type":"SCALAR"
		},
		{
			"bufferView":4,
			"componentType":5126,
			"count":960,
			"max":[
				2.1537137031555176,
				-0.33268433809280396,
				3.9266715049743652
			],
			"min":[
				-2.1537137031555176,
				-1.3288848400115967,
				-2.486234188079834
			],
			"type":"VEC3"
		},
		{
			"bufferView":5,
			"componentType":5126,
			"count":960,
			"type":"VEC3"
		},
		{
			"bufferView":6,
			"componentType":5126,
			"count":960,
			"type":"VEC2"
		},
		{
			"bufferView":7,
			"componentType":5123,
			"count":1536,
			"type":"SCALAR"
		},
		{
			"bufferView":8,
			"componentType":5126,
			"count":100,
			"max":[
				1,
				0.9999999403953552,
				0.0019942522048950195
			],
			"min":[
				-1,
				-1,
				-2.9821763038635254
			],
			"type":"VEC3"
		},
		{
			"bufferView":9,
			"componentType":5126,
			"count":100,
			"type":"VEC3"
		},
		{
			"bufferView":10,
			"componentType":5126,
			"count":100,
			"type":"VEC2"
		},
		{
			"bufferView":11,
			"componentType":5123,
			"count":192,
			"type":"SCALAR"
		},
		{
			"bufferView":12,
			"componentType":5126,
			"count":384,
			"max":[
				1.3257355690002441,
				1.2921148538589478,
				4.626521110534668
			],
			"min":[
				-1.3257355690002441,
				-1.294313669204712,
				3.130506992340088
			],
			"type":"VEC3"
		},
		{
			"bufferView":13,
			"componentType":5126,
			"count":384,
			"type":"VEC3"
		},
		{
			"bufferView":14,
			"componentType":5126,
			"count":384,
			"type":"VEC2"
		},
		{
			"bufferView":15,
			"componentType":5123,
			"count":576,
			"type":"SCALAR"
		},
		{
			"bufferView":16,
			"componentType":5126,
			"count":778,
			"max":[
				0.5260348320007324,
				2.4299044609069824,
				-0.1284940242767334
			],
			"min":[
				-0.5260348320007324,
				2.2266809940338135,
				-1.1146355867385864
			],
			"type":"VEC3"
		},
		{
			"bufferView":17,
			"componentType":5126,
			"count":778,
			"type":"VEC3"
		},
		{
			"bufferView":18,
			"componentType":5126,
			"count":778,
			"type":"VEC2"
		},
		{
			"bufferView":19,
			"componentType":5123,
			"count":1224,
			"type":"SCALAR"
		},
		{
			"bufferView":20,
			"componentType":5126,
			"count":832,
			"max":[
				0.5152957439422607,
				1.348138689994812,
				0.4185698628425598
			],
			"min":[
				-0.5152958035469055,
				-0.20842225849628448,
				-1.0647693872451782
			],
			"type":"VEC3"
		},
		{
			"bufferView":21,
			"componentType":5126,
			"count":832,
			"type":"VEC3"
		},
		{
			"bufferView":22,
			"componentType":5126,
			"count":832,
			"type":"VEC2"
		},
		{
			"bufferView":23,
			"componentType":5123,
			"count":1248,
			"type":"SCALAR"
		}
	],
	"bufferViews":[
		{
			"buffer":0,
			"byteLength":33432,
			"byteOffset":0,
			"target":34962
		},
		{
			"buffer":0,
			"byteLength":33432,
			"byteOffset":33432,
			"target":34962
		},
		{
			"buffer":0,
			"byteLength":22288,
			"byteOffset":66864,
			"target":34962
		},
		{
			"buffer":0,
			"byteLength":8880,
			"byteOffset":89152,
			"target":34963
		},
		{
			"buffer":0,
			"byteLength":11520,
			"byteOffset":98032,
			"target":34962
		},
		{
			"buffer":0,
			"byteLength":11520,
			"byteOffset":109552,
			"target":34962
		},
		{
			"buffer":0,
			"byteLength":7680,
			"byteOffset":121072,
			"target":34962
		},
		{
			"buffer":0,
			"byteLength":3072,
			"byteOffset":128752,
			"target":34963
		},
		{
			"buffer":0,
			"byteLength":1200,
			"byteOffset":131824,
			"target":34962
		},
		{
			"buffer":0,
			"byteLength":1200,
			"byteOffset":133024,
			"target":34962
		},
		{
			"buffer":0,
			"byteLength":800,
			"byteOffset":134224,
			"target":34962
		},
		{
			"buffer":0,
			"byteLength":384,
			"byteOffset":135024,
			"target":34963
		},
		{
			"buffer":0,
			"byteLength":4608,
			"byteOffset":135408,
			"target":34962
		},
		{
			"buffer":0,
			"byteLength":4608,
			"byteOffset":140016,
			"target":34962
		},
		{
			"buffer":0,
			"byteLength":3072,
			"byteOffset":144624,
			"target":34962
		},
		{
			"buffer":0,
			"byteLength":1152,
			"byteOffset":147696,
			"target":34963
		},
		{
			"buffer":0,
			"byteLength":9336,
			"byteOffset":148848,
			"target":34962
		},
		{
			"buffer":0,
			"byteLength":9336,
			"byteOffset":158184,
			"target":34962
		},
		{
			"buffer":0,
			"byteLength":6224,
			"byteOffset":167520,
			"target":34962
		},
		{
			"buffer":0,
			"byteLength":2448,
			"byteOffset":173744,
			"target":34963
		},
		{
			"buffer":0,
			"byteLength":9984,
			"byteOffset":176192,
			"target":34962
		},
		{
			"buffer":0,
			"byteLength":9984,
			"byteOffset":186176,
			"target":34962
		},
		{
			"buffer":0,
			"byteLength":6656,
			"byteOffset":196160,
			"target":34962
		},
		{
			"buffer":0,
			"byteLength":2496,
			"byteOffset":202816,
			"target":34963
		}
	],
	"buffers":[
		{
			"byteLength":205312,
			"uri":"placeholder_submarine.bin"
		}
	]
}
