{
    "asset" : {
        "generator" : "Khronos glTF Blender I/O v3.3.32",
        "version" : "2.0"
    },
    "scene" : 0,
    "scenes" : [
        {
            "name" : "Scene",
            "nodes" : [
                0,
                1,
                2,
                3
            ]
        }
    ],
    "nodes" : [
        {
            "mesh" : 0,
            "name" : "barnacle_droid"
        },
        {
            "mesh" : 1,
            "name" : "barnacle_droid_propel_right",
            "translation" : [
                -1.0748132467269897,
                -0.26935234665870667,
                -0.5629818439483643
            ]
        },
        {
            "mesh" : 2,
            "name" : "barnacle_droid_buffer"
        },
        {
            "mesh" : 3,
            "name" : "barnacle_droid_propel_LEFT",
            "translation" : [
                1.069097876548767,
                -0.26935234665870667,
                -0.5629818439483643
            ]
        }
    ],
    "materials" : [
        {
            "doubleSided" : true,
            "name" : "material",
            "pbrMetallicRoughness" : {}
        }
    ],
    "meshes" : [
        {
            "name" : "Cube",
            "primitives" : [
                {
                    "attributes" : {
                        "POSITION" : 0,
                        "NORMAL" : 1,
                        "TEXCOORD_0" : 2
                    },
                    "indices" : 3,
                    "material" : 0
                }
            ]
        },
        {
            "name" : "Cube.001",
            "primitives" : [
                {
                    "attributes" : {
                        "POSITION" : 4,
                        "NORMAL" : 5,
                        "TEXCOORD_0" : 6
                    },
                    "indices" : 7,
                    "material" : 0
                }
            ]
        },
        {
            "name" : "Cube.002",
            "primitives" : [
                {
                    "attributes" : {
                        "POSITION" : 8,
                        "NORMAL" : 9,
                        "TEXCOORD_0" : 10
                    },
                    "indices" : 11,
                    "material" : 0
                }
            ]
        },
        {
            "name" : "Cube.003",
            "primitives" : [
                {
                    "attributes" : {
                        "POSITION" : 12,
                        "NORMAL" : 13,
                        "TEXCOORD_0" : 14
                    },
                    "indices" : 15,
                    "material" : 0
                }
            ]
        }
    ],
    "accessors" : [
        {
            "bufferView" : 0,
            "componentType" : 5126,
            "count" : 838,
            "max" : [
                1.5748469829559326,
                0.5659899115562439,
                1.999935269355774
            ],
            "min" : [
                -1.6529673337936401,
                -0.7761375904083252,
                -1.6968367099761963
            ],
            "type" : "VEC3"
        },
        {
            "bufferView" : 1,
            "componentType" : 5126,
            "count" : 838,
            "type" : "VEC3"
        },
        {
            "bufferView" : 2,
            "componentType" : 5126,
            "count" : 838,
            "type" : "VEC2"
        },
        {
            "bufferView" : 3,
            "componentType" : 5123,
            "count" : 1308,
            "type" : "SCALAR"
        },
        {
            "bufferView" : 4,
            "componentType" : 5126,
            "count" : 368,
            "max" : [
                0.43211042881011963,
                0.4313090741634369,
                0.05720818042755127
            ],
            "min" : [
                -0.43211042881011963,
                -0.4313090741634369,
                -0.057208120822906494
            ],
            "type" : "VEC3"
        },
        {
            "bufferView" : 5,
            "componentType" : 5126,
            "count" : 368,
            "type" : "VEC3"
        },
        {
            "bufferView" : 6,
            "componentType" : 5126,
            "count" : 368,
            "type" : "VEC2"
        },
        {
            "bufferView" : 7,
            "componentType" : 5123,
            "count" : 528,
            "type" : "SCALAR"
        },
        {
            "bufferView" : 8,
            "componentType" : 5126,
            "count" : 476,
            "max" : [
                0.31075769662857056,
                0.03875117748975754,
                2.1126363277435303
            ],
            "min" : [
                -0.31075769662857056,
                -0.5523452162742615,
                2.0002856254577637
            ],
            "type" : "VEC3"
        },
        {
            "bufferView" : 9,
            "componentType" : 5126,
            "count" : 476,
            "type" : "VEC3"
        },
        {
            "bufferView" : 10,
            "componentType" : 5126,
            "count" : 476,
            "type" : "VEC2"
        },
        {
            "bufferView" : 11,
            "componentType" : 5123,
            "count" : 720,
            "type" : "SCALAR"
        },
        {
            "bufferView" : 12,
            "componentType" : 5126,
            "count" : 368,
            "max" : [
                0.43211042881011963,
                0.4313090741634369,
                0.05720818042755127
            ],
            "min" : [
                -0.43211042881011963,
                -0.4313090741634369,
                -0.057208120822906494
            ],
            "type" : "VEC3"
        },
        {
            "bufferView" : 13,
            "componentType" : 5126,
            "count" : 368,
            "type" : "VEC3"
        },
        {
            "bufferView" : 14,
            "componentType" : 5126,
            "count" : 368,
            "type" : "VEC2"
        },
        {
            "bufferView" : 15,
            "componentType" : 5123,
            "count" : 528,
            "type" : "SCALAR"
        }
    ],
    "bufferViews" : [
        {
            "buffer" : 0,
            "byteLength" : 10056,
            "byteOffset" : 0,
            "target" : 34962
        },
        {
            "buffer" : 0,
            "byteLength" : 10056,
            "byteOffset" : 10056,
            "target" : 34962
        },
        {
            "buffer" : 0,
            "byteLength" : 6704,
            "byteOffset" : 20112,
            "target" : 34962
        },
        {
            "buffer" : 0,
            "byteLength" : 2616,
            "byteOffset" : 26816,
            "target" : 34963
        },
        {
            "buffer" : 0,
            "byteLength" : 4416,
            "byteOffset" : 29432,
            "target" : 34962
        },
        {
            "buffer" : 0,
            "byteLength" : 4416,
            "byteOffset" : 33848,
            "target" : 34962
        },
        {
            "buffer" : 0,
            "byteLength" : 2944,
            "byteOffset" : 38264,
            "target" : 34962
        },
        {
            "buffer" : 0,
            "byteLength" : 1056,
            "byteOffset" : 41208,
            "target" : 34963
        },
        {
            "buffer" : 0,
            "byteLength" : 5712,
            "byteOffset" : 42264,
            "target" : 34962
        },
        {
            "buffer" : 0,
            "byteLength" : 5712,
            "byteOffset" : 47976,
            "target" : 34962
        },
        {
            "buffer" : 0,
            "byteLength" : 3808,
            "byteOffset" : 53688,
            "target" : 34962
        },
        {
            "buffer" : 0,
            "byteLength" : 1440,
            "byteOffset" : 57496,
            "target" : 34963
        },
        {
            "buffer" : 0,
            "byteLength" : 4416,
            "byteOffset" : 58936,
            "target" : 34962
        },
        {
            "buffer" : 0,
            "byteLength" : 4416,
            "byteOffset" : 63352,
            "target" : 34962
        },
        {
            "buffer" : 0,
            "byteLength" : 2944,
            "byteOffset" : 67768,
            "target" : 34962
        },
        {
            "buffer" : 0,
            "byteLength" : 1056,
            "byteOffset" : 70712,
            "target" : 34963
        }
    ],
    "buffers" : [
        {
            "byteLength" : 71768,
            "uri" : "barnacleDrone.bin"
        }
    ]
}
